# xmcd
#
# Track frame offsets: 
#        150
#        14893
#        35194
#        52798
#        68336
#        86814
#        101932
#        119776
#        137268
#        147299
#        163536
#
# Disc length: 2462 seconds
#
# Revision: 0
# Processed by: cddbd v1.4PL0 Copyright (c) Steve Scherf et al.
# Submitted via: ExactAudioCopy v0.90b4
#
DISCID=9c099c0b
DTITLE=Honeyboy Hickling - Blue It
DYEAR=2000
DGENRE=Blues
TTITLE0=Wonderful Night
TTITLE1=Goodbye Maureen
TTITLE2=Do It Alone
TTITLE3=Delores
TTITLE4=Eddie Had to Leave Chicago
TTITLE5=It's Over
TTITLE6=Blue It
TTITLE7=Judgement Day
TTITLE8=Mumbles [Instrumental]
TTITLE9=Long Gone
TTITLE10=Blind Owl
EXTD=
EXTT0=
EXTT1=
EXTT2=
EXTT3=
EXTT4=
EXTT5=
EXTT6=
EXTT7=
EXTT8=
EXTT9=
EXTT10=
PLAYORDER=
